<mxfile modified="2022-03-30T09:10:56.619Z" host="app.diagrams.net" agent="5.0 (Windows NT 10.0; Win64; x64) AppleWebKit/537.36 (KHTML, like Gecko) Chrome/99.0.4844.74 Safari/537.36" etag="Ufboj2Lpp5oxmG1JjlUT" version="17.1.3" type="github">
  <diagram id="Ht1M8jgEwFfnCIfOTk4-" name="Page-1">
    <mxGraphModel dx="666" dy="382" grid="1" gridSize="10" guides="1" tooltips="1" connect="1" arrows="1" fold="1" page="1" pageScale="1" pageWidth="1169" pageHeight="827" math="0" shadow="0">
      <root>
        <mxCell id="0" />
        <mxCell id="1" parent="0" />
        <mxCell id="UEzPUAAOIrF-is8g5C7q-128" style="edgeStyle=orthogonalEdgeStyle;rounded=0;orthogonalLoop=1;jettySize=auto;html=1;startArrow=open;startFill=0;endArrow=open;endFill=0;strokeWidth=2;strokeColor=#808080;entryX=0.5;entryY=0;entryDx=0;entryDy=0;entryPerimeter=0;" parent="1" source="UEzPUAAOIrF-is8g5C7q-109" target="_8wMgT94-2q7rvWga1ed-14" edge="1">
          <mxGeometry relative="1" as="geometry">
            <Array as="points" />
            <mxPoint x="408.5" y="270" as="targetPoint" />
          </mxGeometry>
        </mxCell>
        <mxCell id="UEzPUAAOIrF-is8g5C7q-109" value="Blazor" style="outlineConnect=0;gradientColor=none;fontColor=#545B64;strokeColor=none;fillColor=#879196;dashed=0;verticalLabelPosition=middle;verticalAlign=middle;align=right;html=1;fontSize=12;fontStyle=1;aspect=fixed;shape=mxgraph.aws4.illustration_desktop;pointerEvents=1;labelBackgroundColor=#ffffff;labelPosition=left;spacingLeft=4;spacingRight=12;" parent="1" vertex="1">
          <mxGeometry x="358.5" y="140" width="100" height="91" as="geometry" />
        </mxCell>
        <mxCell id="_8wMgT94-2q7rvWga1ed-10" value="&lt;b&gt;PostgreSQL&lt;/b&gt;" style="aspect=fixed;html=1;points=[];align=left;image;fontSize=12;image=img/lib/azure2/databases/Azure_Database_PostgreSQL_Server.svg;labelPosition=right;verticalLabelPosition=middle;verticalAlign=middle;fontColor=#545B64;spacingLeft=4;" parent="1" vertex="1">
          <mxGeometry x="488" y="427.83000000000004" width="48" height="64" as="geometry" />
        </mxCell>
        <mxCell id="_8wMgT94-2q7rvWga1ed-11" style="edgeStyle=orthogonalEdgeStyle;rounded=0;orthogonalLoop=1;jettySize=auto;html=1;startArrow=open;startFill=0;endArrow=open;endFill=0;strokeWidth=2;strokeColor=#808080;exitX=0;exitY=0.469;exitDx=0;exitDy=0;exitPerimeter=0;entryX=1.022;entryY=0.612;entryDx=0;entryDy=0;entryPerimeter=0;" parent="1" source="_8wMgT94-2q7rvWga1ed-10" target="_8wMgT94-2q7rvWga1ed-12" edge="1">
          <mxGeometry relative="1" as="geometry">
            <Array as="points" />
            <mxPoint x="488" y="440.2969039142339" as="sourcePoint" />
            <mxPoint x="435.9225000000001" y="458.2979200000001" as="targetPoint" />
          </mxGeometry>
        </mxCell>
        <mxCell id="_8wMgT94-2q7rvWga1ed-12" value="&lt;b&gt;C# EF Core&lt;/b&gt;" style="sketch=0;aspect=fixed;pointerEvents=1;shadow=0;dashed=0;html=1;strokeColor=none;labelPosition=left;verticalLabelPosition=middle;verticalAlign=middle;align=right;fillColor=#00188D;shape=mxgraph.mscae.enterprise.server_generic;spacingRight=12;fontColor=#545B64;" parent="1" vertex="1">
          <mxGeometry x="391.5" y="414" width="34" height="70.83" as="geometry" />
        </mxCell>
        <mxCell id="_8wMgT94-2q7rvWga1ed-14" value="&lt;b&gt;Java Spring&lt;/b&gt;" style="sketch=0;aspect=fixed;pointerEvents=1;shadow=0;dashed=0;html=1;strokeColor=none;labelPosition=left;verticalLabelPosition=middle;verticalAlign=middle;align=right;fillColor=#00188D;shape=mxgraph.mscae.enterprise.server_generic;spacingLeft=4;fontColor=#545B64;spacingRight=12;" parent="1" vertex="1">
          <mxGeometry x="391.5" y="285.40999999999997" width="34" height="70.83" as="geometry" />
        </mxCell>
        <mxCell id="_8wMgT94-2q7rvWga1ed-17" value="Tier 2" style="ellipse;whiteSpace=wrap;html=1;aspect=fixed;fontFamily=Verdana;" parent="1" vertex="1">
          <mxGeometry x="100" y="280.83" width="80" height="80" as="geometry" />
        </mxCell>
        <mxCell id="_8wMgT94-2q7rvWga1ed-18" value="Tier 1" style="ellipse;whiteSpace=wrap;html=1;aspect=fixed;fontFamily=Verdana;" parent="1" vertex="1">
          <mxGeometry x="100" y="162.5" width="80" height="80" as="geometry" />
        </mxCell>
        <mxCell id="_8wMgT94-2q7rvWga1ed-19" value="Tier 3" style="ellipse;whiteSpace=wrap;html=1;aspect=fixed;fontFamily=Verdana;" parent="1" vertex="1">
          <mxGeometry x="100" y="404.83" width="80" height="80" as="geometry" />
        </mxCell>
        <mxCell id="_8wMgT94-2q7rvWga1ed-30" style="edgeStyle=orthogonalEdgeStyle;rounded=0;orthogonalLoop=1;jettySize=auto;html=1;startArrow=open;startFill=0;endArrow=open;endFill=0;strokeWidth=2;strokeColor=#808080;exitX=0.5;exitY=1;exitDx=0;exitDy=0;exitPerimeter=0;entryX=0.5;entryY=0;entryDx=0;entryDy=0;entryPerimeter=0;" parent="1" source="_8wMgT94-2q7rvWga1ed-14" target="_8wMgT94-2q7rvWga1ed-12" edge="1">
          <mxGeometry relative="1" as="geometry">
            <Array as="points" />
            <mxPoint x="405.54857142857134" y="450" as="sourcePoint" />
            <mxPoint x="408.5833333333335" y="480" as="targetPoint" />
          </mxGeometry>
        </mxCell>
        <mxCell id="_8wMgT94-2q7rvWga1ed-32" value="REST API" style="outlineConnect=0;fontColor=#545B64;gradientColor=#945DF2;gradientDirection=north;fillColor=#5A30B5;strokeColor=#ffffff;dashed=0;verticalLabelPosition=middle;verticalAlign=middle;align=left;html=1;fontSize=12;fontStyle=1;aspect=fixed;shape=mxgraph.aws4.resourceIcon;resIcon=mxgraph.aws4.api_gateway;labelBackgroundColor=#ffffff;labelPosition=right;spacingRight=12;spacingLeft=4;" parent="1" vertex="1">
          <mxGeometry x="425.5" y="242.5" width="34.75" height="34.75" as="geometry" />
        </mxCell>
        <mxCell id="_8wMgT94-2q7rvWga1ed-35" value="" style="endArrow=none;dashed=1;html=1;rounded=0;fontFamily=Verdana;" parent="1" edge="1">
          <mxGeometry width="50" height="50" relative="1" as="geometry">
            <mxPoint x="80" y="277.25" as="sourcePoint" />
            <mxPoint x="520" y="277.25" as="targetPoint" />
          </mxGeometry>
        </mxCell>
        <mxCell id="_8wMgT94-2q7rvWga1ed-36" value="" style="endArrow=none;dashed=1;html=1;rounded=0;fontFamily=Verdana;" parent="1" edge="1">
          <mxGeometry width="50" height="50" relative="1" as="geometry">
            <mxPoint x="200" y="520" as="sourcePoint" />
            <mxPoint x="200" y="160" as="targetPoint" />
          </mxGeometry>
        </mxCell>
        <mxCell id="_8wMgT94-2q7rvWga1ed-37" value="GraphQL" style="outlineConnect=0;fontColor=#545B64;gradientColor=#945DF2;gradientDirection=north;fillColor=#5A30B5;strokeColor=#ffffff;dashed=0;verticalLabelPosition=middle;verticalAlign=middle;align=left;html=1;fontSize=12;fontStyle=1;aspect=fixed;shape=mxgraph.aws4.resourceIcon;resIcon=mxgraph.aws4.api_gateway;labelBackgroundColor=#ffffff;labelPosition=right;spacingRight=12;spacingLeft=4;" parent="1" vertex="1">
          <mxGeometry x="425.5" y="365.25" width="34.75" height="34.75" as="geometry" />
        </mxCell>
        <mxCell id="_8wMgT94-2q7rvWga1ed-38" value="" style="endArrow=none;dashed=1;html=1;rounded=0;fontFamily=Verdana;" parent="1" edge="1">
          <mxGeometry width="50" height="50" relative="1" as="geometry">
            <mxPoint x="80" y="400" as="sourcePoint" />
            <mxPoint x="520" y="400" as="targetPoint" />
          </mxGeometry>
        </mxCell>
        <mxCell id="_8wMgT94-2q7rvWga1ed-39" value="&lt;b&gt;Client&lt;/b&gt;" style="text;html=1;align=center;verticalAlign=middle;resizable=0;points=[];autosize=1;strokeColor=none;fillColor=none;fontFamily=Verdana;fontColor=#545B64;" parent="1" vertex="1">
          <mxGeometry x="200" y="162.5" width="50" height="20" as="geometry" />
        </mxCell>
        <mxCell id="_8wMgT94-2q7rvWga1ed-40" value="&lt;b&gt;Business Logic&lt;/b&gt;" style="text;html=1;align=center;verticalAlign=middle;resizable=0;points=[];autosize=1;strokeColor=none;fillColor=none;fontFamily=Verdana;fontColor=#545B64;" parent="1" vertex="1">
          <mxGeometry x="200" y="285.40999999999997" width="110" height="20" as="geometry" />
        </mxCell>
        <mxCell id="_8wMgT94-2q7rvWga1ed-41" value="&lt;b&gt;Database&lt;/b&gt;" style="text;html=1;align=center;verticalAlign=middle;resizable=0;points=[];autosize=1;strokeColor=none;fillColor=none;fontFamily=Verdana;fontColor=#545B64;" parent="1" vertex="1">
          <mxGeometry x="200" y="407.83" width="80" height="20" as="geometry" />
        </mxCell>
      </root>
    </mxGraphModel>
  </diagram>
</mxfile>
